<?xml version="1.0" encoding="utf-8"?>
<!-- Generator: Adobe Illustrator 25.1.0, SVG Export Plug-In . SVG Version: 6.00 Build 0)  -->
<svg version="1.1" id="Capa_1" xmlns="http://www.w3.org/2000/svg" xmlns:xlink="http://www.w3.org/1999/xlink" x="0px" y="0px"
	 viewBox="0 0 512 360" style="enable-background:new 0 0 512 360;" xml:space="preserve">
<style type="text/css">
	.st0{fill:#FFFFFF;}
</style>
<g>
	<path class="st0" d="M507.5,25.7L352.2,180l155.3,154.3c2.8-5.9,4.5-12.4,4.5-19.3V45C512,38.1,510.3,31.6,507.5,25.7z"/>
	<path class="st0" d="M287.8,202L486.3,4.5C480.4,1.7,473.9,0,467,0H45c-6.9,0-13.4,1.7-19.3,4.5L224.2,202
		C241.7,219.5,270.3,219.5,287.8,202z"/>
	<path class="st0" d="M4.5,25.7C1.7,31.6,0,38.1,0,45v270c0,6.9,1.7,13.4,4.5,19.3L159.8,180L4.5,25.7z"/>
	<path class="st0" d="M309,223.2c-29.2,29.2-76.8,29.2-106.1,0l-22-22L25.7,355.5c5.9,2.8,12.4,4.5,19.3,4.5h422
		c6.9,0,13.4-1.7,19.3-4.5L331,201.2L309,223.2z"/>
</g>
</svg>
